<?xml version="1.0" encoding="utf-8"?>
<!-- Generator: Adobe Illustrator 16.0.0, SVG Export Plug-In . SVG Version: 6.00 Build 0)  -->
<!DOCTYPE svg PUBLIC "-//W3C//DTD SVG 1.1//EN" "http://www.w3.org/Graphics/SVG/1.1/DTD/svg11.dtd">
<svg version="1.1" id="图层_1" xmlns="http://www.w3.org/2000/svg" xmlns:xlink="http://www.w3.org/1999/xlink" x="0px" y="0px"
	 width="50px" height="50px" viewBox="0 0 50 50" enable-background="new 0 0 50 50" xml:space="preserve">
<g>
	<g>
		<path fill="#a50000" d="M25,2c12.683,0,23,10.318,23,23S37.683,48,25,48S2,37.682,2,25S12.317,2,25,2 M25,0
			C11.191,0,0,11.193,0,25s11.191,25,25,25c13.807,0,25-11.193,25-25S38.807,0,25,0L25,0z"/>
		<g>
			<g>
				<path fill-rule="evenodd" clip-rule="evenodd" fill="#a50000" d="M36.725,10.715c0,0.312-0.254,0.565-0.566,0.565H13.842
					c-0.312,0-0.566-0.254-0.566-0.565l0,0c0-0.312,0.254-0.565,0.566-0.565h22.316C36.471,10.149,36.725,10.402,36.725,10.715
					L36.725,10.715z"/>
				<path fill-rule="evenodd" clip-rule="evenodd" fill="#a50000" d="M36.725,39.285c0,0.312-0.254,0.565-0.566,0.565H13.842
					c-0.312,0-0.566-0.253-0.566-0.565l0,0c0-0.312,0.254-0.565,0.566-0.565h22.316C36.471,38.72,36.725,38.974,36.725,39.285
					L36.725,39.285z"/>
				<path fill-rule="evenodd" clip-rule="evenodd" fill="#a50000" d="M23.023,14.426c0,1.11-0.9,2.011-2.012,2.011h-5.723
					c-1.113,0-2.014-0.9-2.014-2.011l0,0c0-1.112,0.9-2.013,2.014-2.013h5.723C22.123,12.413,23.023,13.313,23.023,14.426
					L23.023,14.426z"/>
				<path fill-rule="evenodd" clip-rule="evenodd" fill="#a50000" d="M36.725,14.426c0,1.11-0.9,2.011-2.014,2.011h-5.723
					c-1.111,0-2.012-0.9-2.012-2.011l0,0c0-1.112,0.9-2.013,2.012-2.013h5.723C35.824,12.413,36.725,13.313,36.725,14.426
					L36.725,14.426z"/>
			</g>
			<path fill="#a50000" d="M35.029,17.708H14.971c-0.936,0-1.695,0.759-1.695,1.695v16.669c0,0.936,0.76,1.695,1.695,1.695h20.059
				c0.936,0,1.695-0.76,1.695-1.695V19.403C36.725,18.467,35.965,17.708,35.029,17.708z M27.861,33.987l-1.577-2.057l-1.439,4.055
				c-0.119,0.334-0.432,0.542-0.767,0.542c-0.091,0-0.182-0.015-0.272-0.047c-0.423-0.15-0.645-0.615-0.494-1.039l1.383-3.897
				l-2.558,0.576l5.725-7.581V33.987z M35.172,21.169c0,0.936-0.76,1.694-1.695,1.694H16.525c-0.938,0-1.695-0.759-1.695-1.694
				v-0.141c0-0.937,0.758-1.695,1.695-1.695h16.951c0.936,0,1.695,0.759,1.695,1.695V21.169z"/>
		</g>
	</g>
</g>
</svg>
