<svg width="49.99999999999999" height="49.99999999999999" xmlns="http://www.w3.org/2000/svg">

 <g>
  <title>background</title>
  <rect fill="none" id="canvas_background" height="402" width="582" y="-1" x="-1"/>
 </g>
 <g>
  <title>Layer 1</title>
  <g id="svg_1">
   <g id="svg_2">
    <path id="svg_3" d="m25,2c12.683,0 23,10.318 23,23s-10.317,23 -23,23s-23,-10.318 -23,-23s10.317,-23 23,-23m0,-2c-13.809,0 -25,11.193 -25,25s11.191,25 25,25c13.807,0 25,-11.193 25,-25s-11.193,-25 -25,-25l0,0z" fill="#6D97AB"/>
    <g id="svg_4">
     <g id="svg_5">
      <path id="svg_6" d="m36.725,10.715c0,0.312 -0.254,0.565 -0.566,0.565l-22.317,0c-0.312,0 -0.566,-0.254 -0.566,-0.565l0,0c0,-0.312 0.254,-0.565 0.566,-0.565l22.316,0c0.313,-0.001 0.567,0.252 0.567,0.565l0,0z" fill="#6D97AB" clip-rule="evenodd" fill-rule="evenodd"/>
      <path id="svg_7" d="m36.725,39.285c0,0.312 -0.254,0.565 -0.566,0.565l-22.317,0c-0.312,0 -0.566,-0.253 -0.566,-0.565l0,0c0,-0.312 0.254,-0.565 0.566,-0.565l22.316,0c0.313,0 0.567,0.254 0.567,0.565l0,0z" fill="#6D97AB" clip-rule="evenodd" fill-rule="evenodd"/>
      <path id="svg_8" d="m23.023,14.426c0,1.11 -0.9,2.011 -2.012,2.011l-5.723,0c-1.113,0 -2.014,-0.9 -2.014,-2.011l0,0c0,-1.112 0.9,-2.013 2.014,-2.013l5.723,0c1.112,0 2.012,0.9 2.012,2.013l0,0z" fill="#6D97AB" clip-rule="evenodd" fill-rule="evenodd"/>
      <path id="svg_9" d="m36.725,14.426c0,1.11 -0.9,2.011 -2.014,2.011l-5.723,0c-1.111,0 -2.012,-0.9 -2.012,-2.011l0,0c0,-1.112 0.9,-2.013 2.012,-2.013l5.723,0c1.113,0 2.014,0.9 2.014,2.013l0,0z" fill="#6D97AB" clip-rule="evenodd" fill-rule="evenodd"/>
     </g>
     <path id="svg_10" d="m35.029,17.708l-20.058,0c-0.936,0 -1.695,0.759 -1.695,1.695l0,16.669c0,0.936 0.76,1.695 1.695,1.695l20.059,0c0.936,0 1.695,-0.76 1.695,-1.695l0,-16.669c0,-0.936 -0.76,-1.695 -1.696,-1.695zm-7.168,16.279l-1.577,-2.057l-1.439,4.055c-0.119,0.334 -0.432,0.542 -0.767,0.542c-0.091,0 -0.182,-0.015 -0.272,-0.047c-0.423,-0.15 -0.645,-0.615 -0.494,-1.039l1.383,-3.897l-2.558,0.576l5.725,-7.581l0,9.448l-0.001,0zm7.311,-12.818c0,0.936 -0.76,1.694 -1.695,1.694l-16.952,0c-0.938,0 -1.695,-0.759 -1.695,-1.694l0,-0.141c0,-0.937 0.758,-1.695 1.695,-1.695l16.951,0c0.936,0 1.695,0.759 1.695,1.695l0,0.141l0.001,0z" fill="#6D97AB"/>
    </g>
   </g>
  </g>
 </g>
</svg>